<svg width="23" height="26" viewBox="0 0 23 26" fill="none" xmlns="http://www.w3.org/2000/svg">
<g clip-path="url(#clip0_77_206)">
<path d="M3.25 0.541748C1.45742 0.541748 0 1.99917 0 3.79175V20.0417C0 21.8343 1.45742 23.2917 3.25 23.2917H19.5C21.2926 23.2917 22.75 21.8343 22.75 20.0417V3.79175C22.75 1.99917 21.2926 0.541748 19.5 0.541748H3.25ZM18.3371 4.80737L13.066 10.83L19.2664 19.0261H14.4117L10.6133 14.0546L6.26133 19.0261H3.84922L9.48594 12.582L3.53945 4.80737H8.51602L11.9539 9.35229L15.925 4.80737H18.3371ZM16.4176 17.5839L7.78984 6.17339H6.35273L15.077 17.5839H16.4125H16.4176Z" fill="black"/>
</g>
<defs>
<clipPath id="clip0_77_206">
<rect width="22.75" height="26" fill="white"/>
</clipPath>
</defs>
</svg>
