<svg width="24" height="24" viewBox="0 0 24 24" fill="none" xmlns="http://www.w3.org/2000/svg">
<g clip-path="url(#clip0_77_208)">
<path d="M20.4491 19.2495H16.8931V13.6805C16.8931 12.3525 16.8694 10.643 15.0436 10.643C13.1915 10.643 12.9081 12.0899 12.9081 13.5838V19.2491H9.35213V7.79701H12.7658V9.36208H12.8137C13.1553 8.77794 13.649 8.29741 14.2421 7.97163C14.8353 7.64586 15.5057 7.48705 16.1819 7.51211C19.7861 7.51211 20.4506 9.88286 20.4506 12.967L20.4491 19.2495ZM5.33963 6.23167C4.19991 6.23186 3.27581 5.30805 3.27562 4.16833C3.27544 3.02861 4.19916 2.10451 5.33887 2.10433C6.47859 2.10405 7.40269 3.02786 7.40287 4.16758C7.40297 4.71489 7.18566 5.23983 6.79872 5.62692C6.41179 6.01401 5.88694 6.23155 5.33963 6.23167ZM7.11769 19.2496H3.55791V7.79701H7.11759L7.11769 19.2496ZM22.2219 -1.1982H1.77103C0.804469 -1.20908 0.0118125 -0.434798 0 0.531764V21.068C0.0114375 22.035 0.804 22.81 1.77094 22.7999H22.2219C23.1909 22.8119 23.9866 22.0369 24 21.068V0.530171C23.9862 -0.438267 23.1905 -1.21245 22.2219 -1.1998" fill="#0A66C2"/>
</g>
<defs>
<clipPath id="clip0_77_208">
<rect width="24" height="24" fill="white"/>
</clipPath>
</defs>
</svg>
